HIERARCHY
ROOT Hips
{
	OFFSET 0.00000 0.00000 0.00000
	CHANNELS 6 Xposition Yposition Zposition Zrotation Yrotation Xrotation 
	JOINT LHipJoint
	{
		OFFSET 0 0 0
		CHANNELS 3 Zrotation Yrotation Xrotation
		JOINT LeftUpLeg
		{
			OFFSET 1.37590 -1.78394 0.89329
			CHANNELS 3 Zrotation Yrotation Xrotation
			JOINT LeftLeg
			{
				OFFSET 2.47928 -6.81178 0.00000
				CHANNELS 3 Zrotation Yrotation Xrotation
				JOINT LeftFoot
				{
					OFFSET 2.63345 -7.23535 0.00000
					CHANNELS 3 Zrotation Yrotation Xrotation
					JOINT LeftToeBase
					{
						OFFSET 0.23938 -0.65768 2.27012
						CHANNELS 3 Zrotation Yrotation Xrotation
						End Site
						{
							OFFSET 0.00000 -0.00000 1.18363
						}
					}
				}
			}
		}
	}
	JOINT RHipJoint
	{
		OFFSET 0 0 0
		CHANNELS 3 Zrotation Yrotation Xrotation
		JOINT RightUpLeg
		{
			OFFSET -1.33617 -1.78394 0.89329
			CHANNELS 3 Zrotation Yrotation Xrotation
			JOINT RightLeg
			{
				OFFSET -2.56922 -7.05888 0.00000
				CHANNELS 3 Zrotation Yrotation Xrotation
				JOINT RightFoot
				{
					OFFSET -2.56568 -7.04915 0.00000
					CHANNELS 3 Zrotation Yrotation Xrotation
					JOINT RightToeBase
					{
						OFFSET -0.27533 -0.75646 2.18105
						CHANNELS 3 Zrotation Yrotation Xrotation
						End Site
						{
							OFFSET -0.00000 -0.00000 1.15233
						}
					}
				}
			}
		}
	}
	JOINT LowerBack
	{
		OFFSET 0 0 0
		CHANNELS 3 Zrotation Yrotation Xrotation
		JOINT Spine
		{
			OFFSET 0.06190 2.15152 -0.00935
			CHANNELS 3 Zrotation Yrotation Xrotation
			JOINT Spine1
			{
				OFFSET 0.06334 2.15332 0.00872
				CHANNELS 3 Zrotation Yrotation Xrotation
				JOINT Neck
				{
					OFFSET 0 0 0
					CHANNELS 3 Zrotation Yrotation Xrotation
					JOINT Neck1
					{
						OFFSET -0.04202 1.66908 0.23524
						CHANNELS 3 Zrotation Yrotation Xrotation
						JOINT Head
						{
							OFFSET 0.07510 1.69357 -0.24440
							CHANNELS 3 Zrotation Yrotation Xrotation
							End Site
							{
								OFFSET 0.02556 1.71719 -0.11000
							}
						}
					}
				}
				JOINT LeftShoulder
				{
					OFFSET 0 0 0
					CHANNELS 3 Zrotation Yrotation Xrotation
					JOINT LeftArm
					{
						OFFSET 3.67168 1.26306 -0.41342
						CHANNELS 3 Zrotation Yrotation Xrotation
						JOINT LeftForeArm
						{
							OFFSET 4.68510 -0.00000 -0.00000
							CHANNELS 3 Zrotation Yrotation Xrotation
							JOINT LeftHand
							{
								OFFSET 3.39626 -0.00000 -0.00000
								CHANNELS 3 Zrotation Yrotation Xrotation
								JOINT LeftFingerBase
								{
									OFFSET 0 0 0
									CHANNELS 3 Zrotation Yrotation Xrotation
									JOINT LeftHandIndex1
									{
										OFFSET 0.48608 -0.00000 -0.00000
										CHANNELS 3 Zrotation Yrotation Xrotation
										End Site
										{
											OFFSET 0.39189 -0.00000 -0.00000
										}
									}
								}
								JOINT LThumb
								{
									OFFSET 0 0 0
									CHANNELS 3 Zrotation Yrotation Xrotation
									End Site
									{
										OFFSET 0.39787 -0.00000 0.39787
									}
								}
							}
						}
					}
				}
				JOINT RightShoulder
				{
					OFFSET 0 0 0
					CHANNELS 3 Zrotation Yrotation Xrotation
					JOINT RightArm
					{
						OFFSET -3.04136 1.42992 -0.76390
						CHANNELS 3 Zrotation Yrotation Xrotation
						JOINT RightForeArm
						{
							OFFSET -5.55576 -0.00000 -0.00000
							CHANNELS 3 Zrotation Yrotation Xrotation
							JOINT RightHand
							{
								OFFSET -3.32774 -0.00000 -0.00000
								CHANNELS 3 Zrotation Yrotation Xrotation
								JOINT RightFingerBase
								{
									OFFSET 0 0 0
									CHANNELS 3 Zrotation Yrotation Xrotation
									JOINT RightHandIndex1
									{
										OFFSET -0.50763 -0.00000 -0.00000
										CHANNELS 3 Zrotation Yrotation Xrotation
										End Site
										{
											OFFSET -0.40926 -0.00000 -0.00000
										}
									}
								}
								JOINT RThumb
								{
									OFFSET 0 0 0
									CHANNELS 3 Zrotation Yrotation Xrotation
									End Site
									{
										OFFSET -0.41551 -0.00000 0.41551
									}
								}
							}
						}
					}
				}
			}
		}
	}
}
MOTION
Frames: 8
Frame Time: .0083333
41.5982 17.8048 5.9631 0 0 0 0 0 0 -21 0 0 0 0 0 0 0 0 0 0 0 0 0 0 21 0 0 0 0 0 0 0 0 0 0 0 0 0 0 0 0 0 0 0 0 0 0 -16 0 0 21 0 0 11 0 0 0 -8 0 0 0 0 0 0 0 0 0 0 0 0 0 0 0 0 0 0 0 0 8 0 0 0 0 0 0 0 0 0 0 0 0 0 0 0 0 0
41.5982 17.8048 5.9631 -149.1400 -81.3934 159.5580 0.0000 0.0000 0.0000 -12.0440 -4.7228 -12.5165 0.9187 6.1068 17.0947 0.2515 4.4596 -12.1810 0.2697 -3.3407 -9.2287 0.0000 0.0000 0.0000 26.7057 8.6865 -11.3721 -0.8909 -6.0163 16.8318 -0.2522 -5.5585 -13.1502 -1.4021 -7.4903 21.1764 4.3282 -1.2368 -4.5336 3.5770 -2.0072 -0.9593 1.1377 -1.0283 1.5378 -8.3428 -4.2183 -16.8893 7.3552 -4.9069 12.0555 3.2111 -2.1294 6.8373 -0.0000 0.0000 0.0000 -94.9566 -4.8015 12.7101 14.1140 -22.8974 -2.8723 -0.0000 -0.0000 32.4581 13.3759 22.1462 5.1223 -7.1250 0.0000 -0.0000 -15.7797 51.9948 -2.7746 -0.0000 0.0000 0.0000 86.8001 3.3295 21.5597 -14.4152 23.3251 -2.9905 0.0000 0.0000 10.4422 -17.4854 -28.8452 8.6416 7.1250 -0.0000 -0.0000 15.2197 -59.3345 -5.4063
41.5852 17.7995 5.9502 -148.3600 -81.3892 158.7960 0.0000 0.0000 0.0000 -11.8305 -4.6200 -13.1529 1.0323 6.4627 18.1330 0.3424 3.9378 -13.2141 0.0334 -1.1794 -3.2425 0.0000 0.0000 0.0000 26.8876 8.6697 -11.3433 -0.8942 -6.0272 16.8634 -0.2458 -5.4183 -12.9209 -0.8297 -5.8111 16.2374 4.3551 -1.2031 -4.1963 3.7032 -1.9412 -1.0568 1.2663 -1.0024 1.2530 -8.2611 -4.1993 -17.1257 7.1417 -4.8476 12.1102 3.1323 -2.1098 6.8820 0.0000 0.0000 0.0000 -95.0939 -4.5568 12.7001 14.1240 -22.9117 -2.8762 -0.0000 -0.0000 32.4993 13.3353 22.0689 5.0894 -7.1250 0.0000 -0.0000 -15.7842 51.9127 -2.7432 0.0000 0.0000 0.0000 86.6568 3.1345 21.3757 -14.4211 23.3335 -2.9929 0.0000 0.0000 10.3481 -17.5812 -31.0458 9.2807 7.1250 -0.0000 -0.0000 16.6672 -61.4810 -6.7924
41.5734 17.7943 5.9386 -147.9230 -81.2830 158.3850 0.0000 0.0000 0.0000 -11.6274 -4.4804 -13.8501 1.1628 6.8455 19.2583 0.4172 3.5462 -14.0224 0.0001 -0.0624 -0.1715 0.0000 0.0000 0.0000 27.0708 8.7224 -11.3327 -0.9025 -6.0542 16.9418 -0.2686 -5.2219 -13.1080 -0.7457 -5.5159 15.3861 4.6224 -1.0554 -4.4204 3.6083 -1.7880 -0.6633 1.0173 -0.9112 1.7743 -7.9544 -4.2990 -17.9167 7.0884 -4.9794 11.9674 3.0409 -2.1471 6.9697 -0.0000 0.0000 0.0000 -94.8576 -5.1765 12.9454 14.0450 -22.7991 -2.8455 -0.0000 -0.0000 32.5389 13.2518 22.2325 5.0920 -7.1250 0.0000 -0.0000 -15.9392 52.0577 -2.8288 -0.0000 0.0000 0.0000 86.8548 3.7444 20.9196 -14.3456 23.2266 -2.9630 0.0000 0.0000 10.3523 -17.5346 -28.7302 8.6360 7.1250 -0.0000 -0.0000 15.0925 -59.2341 -5.3234
41.5630 17.7891 5.9292 -147.4440 -81.2101 157.8990 0.0000 0.0000 0.0000 -11.4537 -4.4309 -14.5542 1.3110 7.2528 20.4666 0.4375 3.4098 -14.2137 0.0009 -0.1962 -0.5391 0.0000 0.0000 0.0000 27.2205 8.7162 -11.3202 -0.9111 -6.0821 17.0228 -0.2782 -5.1079 -13.1588 -0.7490 -5.5281 15.4213 4.7924 -1.1496 -4.3702 3.7121 -1.9183 -0.7957 1.0254 -0.9820 1.6059 -8.1552 -4.0849 -17.0609 7.1495 -4.6940 11.5380 3.1337 -2.0314 6.6717 0.0000 -0.0000 0.0000 -94.9903 -4.6583 12.4151 14.0802 -22.8492 -2.8592 -0.0000 -0.0000 32.6191 13.3191 22.1847 5.1082 -7.1250 0.0000 -0.0000 -15.8522 52.0225 -2.7988 0.0000 -0.0000 0.0000 86.6877 3.3081 21.2490 -14.3749 23.2682 -2.9746 0.0000 0.0000 10.1095 -17.8465 -31.6302 9.5839 7.1250 -0.0000 -0.0000 16.8293 -62.1064 -7.1097
41.5513 17.7840 5.9196 -146.5610 -81.1636 157.0130 0.0000 0.0000 0.0000 -11.2177 -4.3843 -15.3199 1.4816 7.6906 21.7782 0.4617 3.2324 -14.4279 0.0031 -0.3590 -0.9863 0.0000 0.0000 0.0000 27.4335 8.7148 -11.2882 -0.9186 -6.1066 17.0940 -0.2867 -5.0486 -13.2405 -0.7377 -5.4869 15.3028 5.1240 -1.0954 -4.3249 3.6578 -1.8626 -0.6825 0.7878 -0.9493 1.6860 -7.9721 -4.0837 -17.2686 7.1108 -4.7078 11.4082 3.0872 -2.0291 6.6602 0.0000 -0.0000 0.0000 -94.7980 -4.6988 12.4683 14.0506 -22.8070 -2.8477 -0.0000 -0.0000 32.5750 13.3254 22.0758 5.0870 -7.1250 0.0000 -0.0000 -15.7970 51.9179 -2.7475 0.0000 -0.0000 0.0000 86.8292 3.4107 20.9313 -14.3076 23.1727 -2.9481 0.0000 0.0000 10.0948 -17.6123 -31.5407 9.4286 7.1250 -0.0000 -0.0000 17.0178 -61.9619 -7.1338
41.5391 17.7793 5.9084 -145.7190 -81.2092 156.1590 0.0000 0.0000 0.0000 -11.0313 -4.3987 -16.1150 1.6734 8.1498 23.1700 0.4797 3.0634 -14.5621 0.0076 -0.5645 -1.5512 0.0000 0.0000 0.0000 27.5840 8.6552 -11.2575 -0.9228 -6.1201 17.1333 -0.2946 -5.0261 -13.3422 -0.7562 -5.5539 15.4953 5.1214 -1.1231 -3.8413 3.8311 -1.8575 -0.9015 0.9825 -0.9613 1.1954 -8.0578 -4.0493 -17.1469 6.9769 -4.6275 11.4119 3.0675 -2.0074 6.6332 0.0000 -0.0000 0.0000 -95.0197 -4.1746 12.2860 14.0703 -22.8352 -2.8554 -0.0000 -0.0000 32.6499 13.3437 21.9257 5.0614 -7.1250 0.0000 -0.0000 -15.7121 51.7749 -2.6762 0.0000 -0.0000 0.0000 86.5635 2.9286 20.8999 -14.3124 23.1795 -2.9499 0.0000 0.0000 9.9785 -17.2564 -30.2875 8.9038 7.1250 -0.0000 -0.0000 16.4581 -60.6744 -6.3887
41.5250 17.7758 5.8966 -144.7800 -81.3227 155.1830 0.0000 0.0000 0.0000 -10.8819 -4.3958 -16.9610 1.8911 8.6354 24.6614 0.4897 2.8464 -14.5649 0.0210 -0.9349 -2.5696 0.0000 0.0000 0.0000 27.7162 8.5059 -11.2040 -0.9261 -6.1308 17.1644 -0.2996 -5.0367 -13.4276 -0.7418 -5.5019 15.3458 5.0927 -1.2153 -3.6259 4.0128 -1.9619 -1.0635 1.1891 -1.0234 0.9132 -8.2363 -3.9147 -16.5526 6.9652 -4.4318 11.0866 3.1188 -1.9330 6.4180 0.0000 -0.0000 0.0000 -95.2875 -3.6366 11.8712 14.0762 -22.8435 -2.8576 -0.0000 -0.0000 32.8271 13.4219 21.8669 5.0791 -7.1250 0.0000 -0.0000 -15.6102 51.7307 -2.6410 0.0000 -0.0000 0.0000 86.2767 2.5117 20.8860 -14.2213 23.0502 -2.9142 0.0000 0.0000 9.8590 -17.3125 -29.9597 8.8478 7.1250 -0.0000 -0.0000 16.1624 -60.3724 -6.1539
